<?xml version="1.0" encoding="UTF-8"?>
<svg width="28px" height="28px" viewBox="0 0 28 28" version="1.1" xmlns="http://www.w3.org/2000/svg" xmlns:xlink="http://www.w3.org/1999/xlink">
    <title>形状结合</title>
    <g id="活动列表优化" stroke="none" stroke-width="1" fill="none" fill-rule="evenodd">
        <g id="营销活动" transform="translate(-428.000000, -21.000000)" fill="#00A0E8">
            <path d="M441.566447,21 C449.046106,21 455.132894,27.0867881 455.132894,34.5664471 C455.132894,42.0461062 449.046106,48.130957 441.566447,48.130957 C434.084851,48.130957 428,42.0461062 428,34.5664471 C428,27.0867881 434.084851,21 441.566447,21 Z M443.259,37.279 L442.901201,37.4788842 C440.077538,39.0672812 437.66965,41.2120251 435.8035,43.7836145 C437.475712,44.833215 439.451541,45.4401395 441.566447,45.4401395 C447.560248,45.4401395 452.440139,40.5621852 452.440139,34.5664471 C452.440139,34.1156139 452.412549,33.6711004 452.35897,33.2345054 C450.476834,35.6000388 448.174535,37.6123723 445.532065,39.1855292 L445.06296,39.4581558 L444.737505,39.6441302 L443.259,37.279 Z M443.509299,36.9048818 C446.674802,35.124189 449.317767,32.6442897 451.261717,29.6476422 C450.91024,28.9569074 450.487826,28.3102074 450.003924,27.7154369 C448.019266,30.4255565 445.50493,32.712775 442.571641,34.4581864 L442.107904,34.727625 L441.784386,34.9135994 L440.306,32.547 L439.948082,32.749322 C436.770266,34.5353827 434.119061,37.0273539 432.173011,40.039631 C432.556005,40.6938974 433.004347,41.3038767 433.509596,41.8613745 L433.548473,41.807258 C435.519207,39.152809 438.001586,36.9103725 440.890045,35.1924808 L441.349477,34.9256102 L441.672995,34.7396358 L443.15091,37.1044169 L443.509299,36.9048818 Z M440.55618,32.174351 C443.454965,30.5436957 445.915557,28.3266973 447.801671,25.6634703 C446.035068,24.4220486 443.884027,23.6927547 441.566447,23.6927547 C435.570709,23.6927547 430.692755,28.570709 430.692755,34.5664471 C430.692755,35.2875027 430.763304,35.9923921 430.897861,36.674575 C432.818088,34.1950803 435.193546,32.0915626 437.934741,30.4611358 L438.394421,30.1941108 L438.719876,30.0081364 L440.197792,32.3738861 L440.55618,32.174351 Z" id="形状结合"></path>
        </g>
    </g>
</svg>